<svg width="64" height="64" viewBox="0 0 64 64" fill="none" xmlns="http://www.w3.org/2000/svg">
<path d="M52.1688 17.4875L56 13.8062V13H42.7313L33.275 36.65L22.5187 13H8.60625V13.8062L13.0813 19.2188C13.5188 19.6188 13.7438 20.2063 13.6875 20.7938V42.0625C13.825 42.8312 13.5812 43.6125 13.0437 44.1688L8 50.3125V51.1063H22.2875V50.3L17.25 44.175C16.9801 43.901 16.7771 43.5683 16.6567 43.203C16.5364 42.8377 16.502 42.4495 16.5562 42.0687V23.6688L29.1 51.1188H30.5562L41.3438 23.6688V45.5375C41.3438 46.1125 41.3438 46.2313 40.9688 46.6125L37.0875 50.3812V51.1875H55.9125V50.3812L52.1688 46.7C51.8438 46.45 51.675 46.0312 51.7438 45.625V18.5625C51.7114 18.3617 51.7338 18.1558 51.8086 17.9666C51.8834 17.7774 52.0078 17.6119 52.1688 17.4875Z" fill="#46A5CD"/>
</svg>
