<svg width="64" height="64" viewBox="0 0 64 64" fill="none" xmlns="http://www.w3.org/2000/svg">
<path d="M61.3333 7.99999C58.7797 9.80126 55.9523 11.1789 52.96 12.08C51.354 10.2334 49.2195 8.9245 46.8454 8.33046C44.4713 7.73642 41.972 7.88585 39.6855 8.75853C37.3991 9.63122 35.4358 11.1851 34.0613 13.2099C32.6867 15.2347 31.9672 17.6329 32 20.08V22.7467C27.3137 22.8682 22.6701 21.8288 18.4827 19.7212C14.2953 17.6135 10.6942 14.503 7.99999 10.6667C7.99999 10.6667 -2.66668 34.6667 21.3333 45.3333C15.8414 49.0612 9.29907 50.9305 2.66666 50.6667C26.6667 64 56 50.6667 56 20C55.9975 19.2572 55.9261 18.5162 55.7867 17.7867C58.5083 15.1026 60.4289 11.7139 61.3333 7.99999V7.99999Z" stroke="#46A5CD" stroke-width="2" stroke-linecap="round" stroke-linejoin="round"/>
</svg>
